<mxfile host="app.diagrams.net" modified="2023-09-16T21:39:23.718Z" agent="Mozilla/5.0 (X11; Linux x86_64) AppleWebKit/537.36 (KHTML, like Gecko) Chrome/112.0.0.0 Safari/537.36" version="21.7.5" etag="fR8ViAEK6rQHDLxV1Hma" type="github">
  <diagram name="Page-1" id="OtrAPEybtH2oVVtTzrGw">
    <mxGraphModel>
      <root>
        <mxCell id="0" />
        <mxCell id="1" parent="0" />
      </root>
    </mxGraphModel>
  </diagram>
</mxfile>
